<svg xmlns="http://www.w3.org/2000/svg" xmlns:xlink="http://www.w3.org/1999/xlink" x="0px" y="0px" width="80px" height="16px" viewBox="0 0 80 16">
  <title>cd-sprite-3</title>
  <g>
    <path d="M13,11H3a.94.94,0,0,1-1-1V2H0V0H3A.94.94,0,0,1,4,1V2H15c.9,0,1,1,1,1.3l-2,7A1.2,1.2,0,0,1,13,11ZM4,9h8.2l1.4-5H4Z" transform="translate(0 0)" style="fill: #fff"/>
    <circle cx="3" cy="14" r="2" style="fill: #fff"/>
    <circle cx="13" cy="14" r="2" style="fill: #fff"/>
  </g>
  <path d="M31,1H17a.94.94,0,0,0-1,1V14a.94.94,0,0,0,1,1H31a.94.94,0,0,0,1-1V2A.94.94,0,0,0,31,1ZM30,13H18V6.7l5.5,3.1a.55.55,0,0,0,.5.2.9.9,0,0,0,.5-.1L30,6.7Zm0-8.6L24,7.8,18,4.4V3H30Z" transform="translate(0 0)" style="fill: #fff"/>
  <g>
    <path d="M35,16H45a.94.94,0,0,0,1-1V7.5l.3.3A1.85,1.85,0,0,0,47,8a1.14,1.14,0,0,0,.8-.3,1,1,0,0,0-.1-1.4l-7-6a1.05,1.05,0,0,0-1.3,0L36,3.1V2a1,1,0,0,0-2,0V4.8L32.3,6.2a1,1,0,0,0,1.3,1.5l.4-.2V15A.94.94,0,0,0,35,16ZM36,5.7l4-3.4,4,3.5V14H42V11a.94.94,0,0,0-1-1H39a.94.94,0,0,0-1,1v3H36Z" transform="translate(0 0)" style="fill: #fff"/>
    <rect x="38" y="6" width="4" height="2" style="fill: #fff"/>
  </g>
  <g>
    <path d="M70,0H65a.94.94,0,0,0-1,1V6a.94.94,0,0,0,1,1h5a.94.94,0,0,0,1-1V1A.94.94,0,0,0,70,0ZM69,5H66V2h3Z" transform="translate(0 0)" style="fill: #fff"/>
    <path d="M79,0H74a.94.94,0,0,0-1,1V6a.94.94,0,0,0,1,1h5a.94.94,0,0,0,1-1V1A.94.94,0,0,0,79,0ZM78,5H75V2h3Z" transform="translate(0 0)" style="fill: #fff"/>
    <path d="M70,9H65a.94.94,0,0,0-1,1v5a.94.94,0,0,0,1,1h5a.94.94,0,0,0,1-1V10A.94.94,0,0,0,70,9Zm-1,5H66V11h3Z" transform="translate(0 0)" style="fill: #fff"/>
    <path d="M79,9H74a.94.94,0,0,0-1,1v5a.94.94,0,0,0,1,1h5a.94.94,0,0,0,1-1V10A.94.94,0,0,0,79,9Zm-1,5H75V11h3Z" transform="translate(0 0)" style="fill: #fff"/>
  </g>
  <g>
    <path d="M56,.08a8,8,0,1,0,8,8A8,8,0,0,0,56,.08Zm0,14a6,6,0,1,1,6-6A6,6,0,0,1,56,14.08Z" transform="translate(0 0)" style="fill: #fff"/>
    <rect x="55.02" y="6.83" width="2" height="6" rx="1" ry="1" style="fill: #fff"/>
    <circle cx="56.02" cy="4.67" r="1.2" style="fill: #fff"/>
  </g>
</svg>
