<?xml version="1.0" encoding="utf-8"?>
<!-- Generator: Adobe Illustrator 23.0.3, SVG Export Plug-In . SVG Version: 6.00 Build 0)  -->
<svg version="1.1" id="Layer_1" xmlns="http://www.w3.org/2000/svg" xmlns:xlink="http://www.w3.org/1999/xlink" x="0px" y="0px"
	 viewBox="0 0 80 16" style="enable-background:new 0 0 80 16;" xml:space="preserve">
<style type="text/css">
	.st0{fill:#FFFFFF;}
	.st1{fill:none;stroke:#FFFFFF;stroke-width:2;stroke-linecap:round;stroke-linejoin:round;stroke-miterlimit:10;}
</style>
<title>cd-sprite-3</title>
<path class="st0" d="M31,1H17c-0.5,0-1,0.4-1,0.9V2v12c0,0.5,0.4,1,0.9,1H17h14c0.5,0,1-0.4,1-0.9V14V2c0-0.5-0.4-1-0.9-1H31z
	 M30,13H18V6.7l5.5,3.1C23.6,9.9,23.8,10,24,10s0.3,0,0.5-0.1L30,6.7V13z M30,4.4l-6,3.4l-6-3.4V3h12V4.4z"/>
<g>
	<path class="st0" d="M35,16h10c0.5,0,1-0.4,1-0.9V15V7.5l0.3,0.3C46.5,7.9,46.8,8,47,8c0.3,0,0.6-0.1,0.8-0.3
		c0.4-0.4,0.3-1-0.1-1.4l-7-6c-0.4-0.3-0.9-0.3-1.3,0L36,3.1V2c0-0.6-0.4-1-1-1s-1,0.4-1,1v2.8l-1.7,1.4c-0.4,0.4-0.3,1,0.1,1.4
		c0.3,0.3,0.8,0.3,1.2,0.1L34,7.5V15C34,15.5,34.4,16,35,16L35,16z M36,5.7l4-3.4l4,3.5V14h-2v-3c0-0.5-0.4-1-0.9-1H41h-2
		c-0.5,0-1,0.4-1,0.9V11v3h-2V5.7z"/>
	<rect x="38" y="6" class="st0" width="4" height="2"/>
</g>
<g>
	<path class="st0" d="M70,0h-5c-0.5,0-1,0.4-1,0.9V1v5c0,0.5,0.4,1,0.9,1H65h5c0.5,0,1-0.4,1-0.9V6V1C71,0.5,70.6,0,70,0L70,0z
		 M69,5h-3V2h3V5z"/>
	<path class="st0" d="M79,0h-5c-0.5,0-1,0.4-1,0.9V1v5c0,0.5,0.4,1,0.9,1H74h5c0.5,0,1-0.4,1-0.9V6V1C80,0.5,79.6,0,79,0L79,0z
		 M78,5h-3V2h3V5z"/>
	<path class="st0" d="M70,9h-5c-0.5,0-1,0.4-1,0.9V10v5c0,0.5,0.4,1,0.9,1H65h5c0.5,0,1-0.4,1-0.9V15v-5C71,9.5,70.6,9,70,9L70,9z
		 M69,14h-3v-3h3V14z"/>
	<path class="st0" d="M79,9h-5c-0.5,0-1,0.4-1,0.9V10v5c0,0.5,0.4,1,0.9,1H74h5c0.5,0,1-0.4,1-0.9V15v-5C80,9.5,79.6,9,79,9L79,9z
		 M78,14h-3v-3h3V14z"/>
</g>
<g>
	<path class="st0" d="M56,0.1c-4.4,0-8,3.6-8,8s3.6,8,8,8s8-3.6,8-8l0,0C64,3.7,60.4,0.1,56,0.1z M56,14.1c-3.3,0-6-2.7-6-6
		s2.7-6,6-6s6,2.7,6,6S59.3,14.1,56,14.1z"/>
	<path class="st0" d="M56,6.8L56,6.8c0.6,0,1,0.4,1,1v4c0,0.6-0.4,1-1,1l0,0c-0.6,0-1-0.4-1-1v-4C55,7.3,55.5,6.8,56,6.8z"/>
	<circle class="st0" cx="56" cy="4.7" r="1.2"/>
</g>
<g>
	<path class="st0" d="M8,0C3.6,0,0,3.6,0,8s3.6,8,8,8s8-3.6,8-8l0,0C16,3.6,12.4,0,8,0z M8,14c-3.3,0-6-2.7-6-6s2.7-6,6-6s6,2.7,6,6
		S11.3,14,8,14z"/>
	<polygon class="st1" points="11.9,8 5.8,4.5 5.8,11.5 	"/>
</g>
</svg>
