<?xml version="1.0" encoding="utf-8"?>
<!-- Generator: Adobe Illustrator 22.0.1, SVG Export Plug-In . SVG Version: 6.00 Build 0)  -->
<svg version="1.1" id="Layer_1" xmlns="http://www.w3.org/2000/svg" xmlns:xlink="http://www.w3.org/1999/xlink" x="0px" y="0px"
	 viewBox="0 0 310.4 95.5" style="enable-background:new 0 0 310.4 95.5;" xml:space="preserve">
<style type="text/css">
	.st0{fill:#00BFAC;}
	.st1{font-family:'Rockwell-ExtraBold';}
	.st2{font-size:53.3789px;}
	.st3{clip-path:url(#SVGID_2_);fill:#FFFFFF;}
	.st4{clip-path:url(#SVGID_2_);}
	.st5{font-size:64.6184px;}
	.st6{clip-path:url(#SVGID_4_);fill:#FFFFFF;}
	.st7{clip-path:url(#SVGID_4_);}
</style>
<title>Asset 3</title>
<g>
	<text transform="matrix(1 0 0 1 66.4723 66.0275)" class="st0 st1 st2">GAMES</text>
	<g>
		<defs>
			
				<rect id="SVGID_1_" x="5.8" y="13" transform="matrix(0.9962 -8.715552e-02 8.715552e-02 0.9962 -1.5086 13.6169)" width="298.8" height="22.2"/>
		</defs>
		<clipPath id="SVGID_2_">
			<use xlink:href="#SVGID_1_"  style="overflow:visible;"/>
		</clipPath>
		
			<rect x="5.8" y="13" transform="matrix(0.9962 -8.715552e-02 8.715552e-02 0.9962 -1.5086 13.6169)" class="st3" width="298.8" height="22.2"/>
		<g class="st4">
			<text transform="matrix(0.9962 -8.715554e-02 8.715554e-02 0.9962 9.2631 70.297)" class="st1 st5">HALFUN</text>
		</g>
	</g>
	<g>
		<defs>
			
				<rect id="SVGID_3_" x="5.8" y="60.3" transform="matrix(0.9962 8.715574e-02 -8.715574e-02 0.9962 6.8156 -13.2535)" width="298.8" height="22.2"/>
		</defs>
		<clipPath id="SVGID_4_">
			<use xlink:href="#SVGID_3_"  style="overflow:visible;"/>
		</clipPath>
		
			<rect x="5.8" y="60.3" transform="matrix(0.9962 8.715574e-02 -8.715574e-02 0.9962 6.8156 -13.2535)" class="st6" width="298.8" height="22.2"/>
		<g class="st7">
			<text transform="matrix(0.9962 8.715574e-02 -8.715574e-02 0.9962 5.3902 69.4669)" class="st1 st5">HALFUN</text>
		</g>
	</g>
</g>
</svg>
