<?xml version="1.0" encoding="utf-8"?>
<!-- Generator: Adobe Illustrator 22.0.1, SVG Export Plug-In . SVG Version: 6.00 Build 0)  -->
<svg version="1.1" id="Layer_1" xmlns="http://www.w3.org/2000/svg" xmlns:xlink="http://www.w3.org/1999/xlink" x="0px" y="0px"
	 viewBox="0 0 310.4 95.5" style="enable-background:new 0 0 310.4 95.5;" xml:space="preserve">
<style type="text/css">
	.st0{fill:#00BFAC;}
	.st1{font-family:'Rockwell-ExtraBold';}
	.st2{font-size:9.9128px;}
	.st3{clip-path:url(#SVGID_2_);fill:#FFFFFF;}
	.st4{clip-path:url(#SVGID_2_);}
	.st5{font-size:12px;}
	.st6{clip-path:url(#SVGID_4_);fill:#FFFFFF;}
	.st7{clip-path:url(#SVGID_4_);}
</style>
<title>Asset 3</title>
<text transform="matrix(1 0 0 1 58.8337 51.1486)" class="st0 st1 st2">GAMES</text>
<g>
	<defs>
		
			<rect id="SVGID_1_" x="47.6" y="41.3" transform="matrix(0.9962 -8.715552e-02 8.715552e-02 0.9962 -3.4924 6.7285)" width="55.5" height="4.1"/>
	</defs>
	<clipPath id="SVGID_2_">
		<use xlink:href="#SVGID_1_"  style="overflow:visible;"/>
	</clipPath>
	
		<rect x="47.6" y="41.3" transform="matrix(0.9962 -8.715552e-02 8.715552e-02 0.9962 -3.4924 6.7285)" class="st3" width="55.5" height="4.1"/>
	<g class="st4">
		<text transform="matrix(0.9962 -8.715554e-02 8.715554e-02 0.9962 48.2087 51.9411)" class="st1 st5">HALFUN</text>
	</g>
</g>
<g>
	<defs>
		
			<rect id="SVGID_3_" x="47.6" y="50.1" transform="matrix(0.9962 8.715574e-02 -8.715574e-02 0.9962 4.8318 -6.3651)" width="55.5" height="4.1"/>
	</defs>
	<clipPath id="SVGID_4_">
		<use xlink:href="#SVGID_3_"  style="overflow:visible;"/>
	</clipPath>
	
		<rect x="47.6" y="50.1" transform="matrix(0.9962 8.715574e-02 -8.715574e-02 0.9962 4.8318 -6.3651)" class="st6" width="55.5" height="4.1"/>
	<g class="st7">
		<text transform="matrix(0.9962 8.715574e-02 -8.715574e-02 0.9962 47.4897 51.7874)" class="st1 st5">HALFUN</text>
	</g>
</g>
</svg>
