<?xml version="1.0" encoding="utf-8"?>
<!-- Generator: Adobe Illustrator 22.0.1, SVG Export Plug-In . SVG Version: 6.00 Build 0)  -->
<svg version="1.1" id="Layer_1" xmlns="http://www.w3.org/2000/svg" xmlns:xlink="http://www.w3.org/1999/xlink" x="0px" y="0px"
	 viewBox="0 0 310.4 95.5" style="enable-background:new 0 0 310.4 95.5;" xml:space="preserve">
<style type="text/css">
	.st0{font-family:'ArialMT';}
	.st1{font-size:32.4114px;}
	.st2{letter-spacing:3.7;}
	.st3{clip-path:url(#SVGID_2_);fill:#FFFFFF;}
	.st4{clip-path:url(#SVGID_4_);}
	.st5{clip-path:url(#SVGID_6_);fill:#FFFFFF;}
	.st6{clip-path:url(#SVGID_8_);}
</style>
<title>Asset 3</title>
<text transform="matrix(1.3634 0 0 1 59.1356 54.2502)" class="st0 st1 st2">STUDIO</text>
<g>
	<g>
		<defs>
			<path id="SVGID_1_" d="M310.4,34.4V0H0v33.6c40.5-4.9,93.7-7.8,151.9-7.8C213.3,25.7,269.1,29,310.4,34.4z"/>
		</defs>
		<clipPath id="SVGID_2_">
			<use xlink:href="#SVGID_1_"  style="overflow:visible;"/>
		</clipPath>
		<rect x="-2.8" y="11.6" class="st3" width="313.2" height="46.9"/>
	</g>
	<g>
		<defs>
			<path id="SVGID_3_" d="M310.4,34.4V0H0v33.6c40.5-4.9,93.7-7.8,151.9-7.8C213.3,25.7,269.1,29,310.4,34.4z"/>
		</defs>
		<clipPath id="SVGID_4_">
			<use xlink:href="#SVGID_3_"  style="overflow:visible;"/>
		</clipPath>
		<g class="st4">
			<g>
				<path d="M24.5,55c-9.7,1.3-14.6,2-24.3,3.5c-0.7-4.4-1-6.6-1.7-11c1.4-0.2,2.1-0.3,3.5-0.6C0.5,37.4-0.2,32.6-1.7,23
					c-1.5,0.2-2.2,0.3-3.7,0.6c-0.7-4.4-1-6.6-1.7-11C3,11.2,8.1,10.4,18.3,9.1c0.6,4.4,0.9,6.6,1.5,11c-1.2,0.2-1.8,0.2-3.1,0.4
					c0.4,2.8,0.6,4.2,1,7c4.4-0.6,6.6-0.9,11-1.4c-0.4-2.8-0.5-4.2-0.9-7c-1.2,0.2-1.9,0.2-3.1,0.4c-0.6-4.4-0.8-6.6-1.4-11
					c10.2-1.3,15.3-1.9,25.5-3c0.5,4.4,0.7,6.6,1.1,11c-1.4,0.1-2.2,0.2-3.6,0.4c1,9.6,1.5,14.4,2.6,24c1.4-0.2,2.1-0.2,3.5-0.4
					c0.5,4.4,0.7,6.6,1.1,11c-9.8,1-14.6,1.6-24.4,2.8c-0.6-4.4-0.8-6.6-1.4-11c1.2-0.2,1.8-0.2,3-0.4c-0.4-3-0.6-4.5-0.9-7.5
					c-4.4,0.5-6.5,0.8-10.9,1.4c0.4,3,0.6,4.5,1,7.5c1.2-0.2,1.8-0.2,3-0.4C23.6,48.4,23.9,50.6,24.5,55z"/>
				<path d="M75.8,49.5c-7.4,0.6-11,0.9-18.4,1.6c-0.4-4.4-0.7-6.6-1.1-11c1.4-0.1,2.1-0.2,3.6-0.3c2.6-10,3.9-14.9,6.7-24.9
					c-1.5,0.1-2.3,0.2-3.9,0.3c-0.4-4.4-0.6-6.6-1-11c11.7-1,23.3-1.9,35-2.5c0.3,4.4,0.4,6.6,0.6,11.1c-1.5,0.1-2.3,0.1-3.9,0.2
					c4.3,9.4,6.3,14.1,10.4,23.6c1.4-0.1,2.1-0.1,3.4-0.2c0.2,4.4,0.3,6.6,0.5,11.1C98,48,93.1,48.3,83.5,49
					c-0.3-4.1-0.4-6.1-0.7-10.1c1.6-0.1,2.5-0.2,4.1-0.3c-0.9-2.3-1.3-3.4-2.2-5.7c-4.8,0.3-7.2,0.5-12.1,0.9c-0.6,2.4-1,3.6-1.6,6
					c1.5-0.1,2.3-0.2,3.8-0.3C75.3,43.5,75.5,45.5,75.8,49.5z M77.6,14.7c-1.4,5.3-2.1,7.9-3.5,13.1c3.4-0.3,5.1-0.4,8.5-0.6
					C80.6,22.2,79.6,19.7,77.6,14.7z"/>
				<path d="M155.3,46.3c-14.8,0.1-29.5,0.4-44.3,1c-0.2-4.4-0.3-6.6-0.5-11.1c1.7-0.1,2.5-0.1,4.2-0.2c-0.4-9.7-0.6-14.5-1-24.1
					c-1.7,0.1-2.6,0.1-4.3,0.2c-0.2-4.4-0.3-6.6-0.5-11.1c11.1-0.5,16.7-0.7,27.8-0.9c0.1,4.4,0.1,6.7,0.2,11.1
					c-1.8,0-2.7,0.1-4.6,0.1c0.2,9.7,0.3,14.5,0.5,24.1c4.4-0.1,6.7-0.1,11.1-0.2c0-3,0-4.5-0.1-7.4c4.5-0.1,6.8-0.1,11.3-0.1
					C155.3,35.2,155.3,38.9,155.3,46.3z"/>
				<path d="M186.5,46.8c-9.4-0.3-18.8-0.5-28.3-0.5c0-4.4,0-6.7,0-11.1c2,0,3,0,4.9,0c0.1-9.7,0.1-14.5,0.2-24.2
					c-2.1,0-3.1,0-5.2,0c0-4.4,0-6.7,0-11.1c16,0.1,32,0.4,47.9,1.2c-0.3,6.1-0.4,9.1-0.7,15.2c-5.1-0.2-7.7-0.4-12.8-0.5
					c0.1-1.7,0.1-2.5,0.2-4.2c-4.3-0.2-6.5-0.2-10.8-0.3c-0.1,2.9-0.1,4.3-0.2,7.1c3.3,0.1,5,0.1,8.3,0.2c-0.1,3.8-0.2,5.7-0.3,9.4
					c-3.3-0.1-4.9-0.2-8.2-0.2c-0.1,3-0.1,4.6-0.2,7.6c2.2,0.1,3.3,0.1,5.4,0.2C186.7,40.2,186.6,42.4,186.5,46.8z"/>
				<path d="M212.4,12.7c-1.5-0.1-2.2-0.1-3.7-0.2c0.2-4.4,0.3-6.6,0.6-11.1c10,0.5,14.9,0.8,24.9,1.6c-0.3,4.4-0.5,6.6-0.8,11.1
					c-0.9-0.1-1.4-0.1-2.3-0.2c-0.5,6.2-0.7,9.3-1.2,15.6c-0.3,3.7-0.1,6.3,0.5,7.7s1.9,2.1,3.7,2.3c1.5,0.1,2.7-0.4,3.5-1.4
					s1.3-3.3,1.6-6.7c0.6-6.7,0.8-10,1.4-16.7c-1-0.1-1.5-0.1-2.4-0.2c0.4-4.4,0.5-6.6,0.9-11.1c7.3,0.6,11,0.9,18.3,1.6
					c-0.4,4.4-0.7,6.6-1.1,11c-1.5-0.1-2.3-0.2-3.8-0.4c-0.6,6.7-1,10-1.6,16.7c-0.4,4.3-1.4,7.7-2.9,10.3s-3.8,4.5-6.8,5.8
					s-6.6,1.7-10.9,1.4c-3.4-0.3-6.4-0.9-9-1.9s-4.7-2.3-6.1-4.1c-1.5-1.7-2.5-3.8-3.1-6.1s-0.8-5.7-0.6-10.4
					C211.9,21.6,212.1,18.6,212.4,12.7z"/>
				<path d="M275.9,53.7c-7.6-0.9-11.4-1.4-19-2.1c0.5-4.4,0.7-6.6,1.1-11c1.6,0.2,2.5,0.3,4.1,0.4c1-9.6,1.5-14.4,2.6-24
					c-1.7-0.2-2.5-0.3-4.2-0.4c0.5-4.4,0.7-6.6,1.1-11c9.2,0.9,13.8,1.5,23,2.6c4.9,8.7,9.6,17.5,14.2,26.3c0.7-5.2,1.1-7.8,1.9-13
					c-1.6-0.2-2.3-0.3-3.9-0.5c0.6-4.4,0.9-6.6,1.5-11c7.8,1.1,11.7,1.7,19.5,2.9c-0.7,4.4-1,6.6-1.7,11c-1.7-0.3-2.5-0.4-4.2-0.6
					c-1.8,11.8-3.6,23.6-5.5,35.4c-6.1-0.9-9.1-1.4-15.2-2.2C285.9,46.1,280.6,36,275.1,26c-0.8,6.5-1.2,9.7-1.9,16.2
					c1.7,0.2,2.5,0.3,4.1,0.5C276.7,47.1,276.5,49.3,275.9,53.7z"/>
			</g>
		</g>
	</g>
</g>
<g>
	<g>
		<defs>
			<path id="SVGID_5_" d="M0,48.1v36.6h310.4V48.8c-40,7.4-94,11.9-153.4,11.9C95.8,60.7,40.4,55.9,0,48.1z"/>
		</defs>
		<clipPath id="SVGID_6_">
			<use xlink:href="#SVGID_5_"  style="overflow:visible;"/>
		</clipPath>
		<rect x="-2.8" y="24.9" class="st5" width="313.2" height="46.9"/>
	</g>
	<g>
		<defs>
			<path id="SVGID_7_" d="M0,48.1v36.6h310.4V48.8c-40,7.4-94,11.9-153.4,11.9C95.8,60.7,40.4,55.9,0,48.1z"/>
		</defs>
		<clipPath id="SVGID_8_">
			<use xlink:href="#SVGID_7_"  style="overflow:visible;"/>
		</clipPath>
		<g class="st6">
			<g>
				<path d="M18.4,74.9C8.3,73.6,3.2,72.8-7,71.2c0.7-4.4,1-6.6,1.7-11c1.4,0.2,2.2,0.3,3.6,0.6c1.5-9.5,2.2-14.3,3.7-23.9
					c-1.4-0.2-2.1-0.3-3.6-0.6c0.7-4.4,1-6.6,1.7-11C9.9,27,14.8,27.7,24.6,29c-0.6,4.4-0.9,6.6-1.5,11c-1.2-0.2-1.8-0.2-3-0.4
					c-0.4,2.8-0.6,4.2-1,7c4.4,0.6,6.5,0.9,10.9,1.4c0.4-2.8,0.5-4.2,0.9-7c-1.2-0.2-1.8-0.2-3-0.4c0.6-4.4,0.8-6.6,1.4-11
					c9.7,1.2,14.6,1.8,24.4,2.8c-0.5,4.4-0.7,6.6-1.1,11c-1.4-0.1-2.1-0.2-3.5-0.4c-1,9.6-1.5,14.4-2.6,24c1.4,0.2,2.2,0.2,3.6,0.4
					c-0.5,4.4-0.7,6.6-1.1,11c-10.2-1.1-15.3-1.6-25.5-2.9c0.6-4.4,0.8-6.6,1.4-11c1.2,0.2,1.9,0.2,3.1,0.4c0.4-3,0.6-4.5,0.9-7.5
					c-4.4-0.6-6.6-0.8-11-1.4c-0.4,3-0.6,4.5-1,7.5c1.2,0.2,1.8,0.2,3.1,0.4C19.3,68.3,19,70.5,18.4,74.9z"/>
				<path d="M72.1,80.7c-7.7-0.6-11.5-1-19.2-1.7c0.4-4.4,0.7-6.6,1.1-11c1.5,0.1,2.2,0.2,3.7,0.4C62.2,59,64.4,54.3,68.8,45
					c-1.5-0.1-2.3-0.2-3.8-0.3c0.4-4.4,0.6-6.6,1-11c11.1,0.9,22.2,1.8,33.3,2.5c-0.3,4.4-0.4,6.6-0.6,11.1
					c-1.5-0.1-2.3-0.1-3.8-0.2c3,9.9,4.6,14.8,7.7,24.6c1.4,0.1,2.1,0.1,3.5,0.2c-0.2,4.4-0.3,6.6-0.5,11.1
					c-10.1-0.5-15.2-0.8-25.4-1.5c0.3-4.1,0.4-6.1,0.7-10.1c1.7,0.1,2.5,0.2,4.2,0.3c-0.6-2.4-0.9-3.6-1.4-5.9
					c-4.9-0.3-7.3-0.5-12.2-0.9c-1,2.3-1.5,3.4-2.6,5.6c1.6,0.1,2.4,0.2,3.9,0.3C72.6,74.6,72.5,76.6,72.1,80.7z M79.3,46.5
					c-2.2,5-3.2,7.5-5.4,12.4c3.4,0.3,5.1,0.4,8.5,0.6C81.2,54.4,80.5,51.8,79.3,46.5z"/>
				<path d="M155.3,84c-15.4-0.1-30.9-0.4-46.3-1c0.2-4.4,0.3-6.6,0.5-11.1c1.7,0.1,2.6,0.1,4.3,0.2c0.4-9.7,0.6-14.5,1-24.1
					c-1.7-0.1-2.5-0.1-4.2-0.2c0.2-4.4,0.3-6.6,0.5-11.1c10.6,0.5,15.9,0.6,26.6,0.8c-0.1,4.4-0.1,6.7-0.2,11.1
					c-1.8,0-2.7,0-4.5-0.1c-0.2,9.7-0.3,14.5-0.5,24.1c4.6,0.1,6.8,0.1,11.4,0.2c0-3,0-4.5,0.1-7.4c4.6,0.1,6.8,0.1,11.4,0.1
					C155.3,72.9,155.3,76.6,155.3,84z"/>
				<path d="M187.9,83.5c-9.8,0.3-19.7,0.5-29.6,0.5c0-4.4,0-6.7,0-11.1c2,0,3,0,5.1,0c-0.1-9.7-0.1-14.5-0.2-24.2c-2,0-3.1,0-5.1,0
					c0-4.4,0-6.7,0-11.1c15.3-0.1,30.5-0.5,45.8-1.2c0.3,6.1,0.4,9.1,0.7,15.2c-5,0.2-7.5,0.4-12.5,0.5c-0.1-1.7-0.1-2.5-0.2-4.2
					c-4.2,0.2-6.3,0.2-10.5,0.3c0.1,2.9,0.1,4.3,0.2,7.1c3.3-0.1,4.9-0.1,8.2-0.2c0.1,3.8,0.2,5.7,0.3,9.4c-3.3,0.1-4.9,0.2-8.2,0.2
					c0.1,3,0.1,4.6,0.2,7.6c2.2-0.1,3.3-0.1,5.6-0.2C187.7,76.8,187.8,79.1,187.9,83.5z"/>
				<path d="M211,47.2c-1.4,0.1-2.2,0.1-3.6,0.2c-0.2-4.4-0.3-6.6-0.6-11.1c9.5-0.5,14.3-0.8,23.8-1.5c0.3,4.4,0.5,6.6,0.8,11.1
					c-0.9,0.1-1.3,0.1-2.2,0.2c0.5,6.2,0.7,9.3,1.2,15.6c0.3,3.7,0.8,6.2,1.7,7.5c0.8,1.3,2.2,1.8,4.1,1.7c1.6-0.1,2.7-0.8,3.3-2
					s0.8-3.5,0.5-6.9c-0.6-6.7-0.8-10-1.4-16.7c-0.9,0.1-1.4,0.1-2.4,0.2c-0.4-4.4-0.5-6.6-0.9-11.1c7-0.6,10.5-0.9,17.4-1.6
					c0.4,4.4,0.7,6.6,1.1,11c-1.5,0.1-2.2,0.2-3.7,0.4c0.6,6.7,1,10,1.6,16.7c0.4,4.3,0.1,7.8-0.9,10.7c-1,2.8-3,5.1-5.9,6.9
					s-6.6,2.9-11,3.2c-3.6,0.3-6.8,0.1-9.5-0.6c-2.8-0.6-5.1-1.7-6.9-3.2c-1.7-1.5-3-3.4-3.9-5.7c-0.9-2.2-1.5-5.6-1.8-10.2
					C211.5,56.1,211.4,53.1,211,47.2z"/>
				<path d="M281.5,76.3c-7.9,1-11.9,1.4-19.9,2.2c-0.5-4.4-0.7-6.6-1.1-11c1.7-0.2,2.5-0.3,4.2-0.4c-1-9.6-1.5-14.4-2.6-24
					c-1.6,0.2-2.5,0.3-4.1,0.4c-0.5-4.4-0.7-6.6-1.1-11c8.8-0.9,13.2-1.4,21.9-2.5c6.6,7.3,13.4,14.6,20.2,21.7
					c-0.7-5.2-1.1-7.8-1.9-13c-1.5,0.2-2.3,0.3-3.8,0.5c-0.6-4.4-0.9-6.6-1.5-11c7.4-1,11.2-1.6,18.6-2.8c0.7,4.4,1,6.6,1.7,11
					c-1.6,0.3-2.4,0.4-4.1,0.6c1.8,11.8,3.6,23.6,5.5,35.4c-6.4,1-9.5,1.4-15.9,2.3c-8-8.3-15.9-16.7-23.7-25.2
					c0.8,6.5,1.2,9.7,1.9,16.2c1.7-0.2,2.5-0.3,4.2-0.5C280.7,69.7,280.9,71.9,281.5,76.3z"/>
			</g>
		</g>
	</g>
</g>
</svg>
