<svg width="80" height="16" xmlns="http://www.w3.org/2000/svg">

 <g>
  <title>background</title>
  <rect fill="none" id="canvas_background" height="402" width="582" y="-1" x="-1"/>
 </g>
 <g>
  <title>Layer 1</title>
  <g id="svg_1">
   <path id="svg_2" d="m13,11l-10,0c-0.6,0 -1,-0.4 -1,-1l0,-8l-2,0l0,-2l3,0c0.6,0 1,0.4 1,1l0,1l11,0c0.9,0 1,1 1,1.3l-2,7c-0.2,0.4 -0.6,0.7 -1,0.7zm-9,-2l8.2,0l1.4,-5l-9.6,0l0,5z" fill="#ffffff"/>
   <circle id="svg_3" r="2" cy="14" cx="3" fill="#ffffff"/>
   <circle id="svg_4" r="2" cy="14" cx="13" fill="#ffffff"/>
  </g>
  <g id="svg_5">
   <path id="svg_6" d="m31,1l-14,0c-0.6,0 -1,0.4 -1,1l0,12c0,0.6 0.4,1 1,1l14,0c0.6,0 1,-0.4 1,-1l0,-12c0,-0.6 -0.4,-1 -1,-1zm-1,12l-12,0l0,-6.3l5.5,3.1c0.2,0.2 0.3,0.2 0.5,0.2s0.3,0 0.5,-0.1l5.5,-3.2l0,6.3zm0,-8.6l-6,3.4l-6,-3.4l0,-1.4l12,0l0,1.4z" fill="#ffffff"/>
  </g>
  <g id="svg_7">
   <path id="svg_8" d="m35,16l10,0c0.6,0 1,-0.4 1,-1l0,-7.5l0.3,0.3c0.2,0.1 0.5,0.2 0.7,0.2c0.3,0 0.6,-0.1 0.8,-0.3c0.4,-0.4 0.3,-1 -0.1,-1.4l-7,-6c-0.4,-0.3 -0.9,-0.3 -1.3,0l-3.4,2.8l0,-1.1c0,-0.6 -0.4,-1 -1,-1s-1,0.4 -1,1l0,2.8l-1.7,1.4c-0.4,0.4 -0.5,1 -0.1,1.4c0.4,0.4 1,0.5 1.4,0.1l0.4,-0.2l0,7.5c0,0.6 0.4,1 1,1zm1,-10.3l4,-3.4l4,3.5c0,0.1 0,0.1 0,0.2l0,8l-2,0l0,-3c0,-0.6 -0.4,-1 -1,-1l-2,0c-0.6,0 -1,0.4 -1,1l0,3l-2,0l0,-8.3z" fill="#ffffff"/>
   <rect id="svg_9" height="2" width="4" fill="#ffffff" y="6" x="38"/>
  </g>
  <g id="svg_13">
   <path id="svg_14" d="m70,0l-5,0c-0.6,0 -1,0.4 -1,1l0,5c0,0.6 0.4,1 1,1l5,0c0.6,0 1,-0.4 1,-1l0,-5c0,-0.6 -0.4,-1 -1,-1zm-1,5l-3,0l0,-3l3,0l0,3z" fill="#ffffff"/>
   <path id="svg_15" d="m79,0l-5,0c-0.6,0 -1,0.4 -1,1l0,5c0,0.6 0.4,1 1,1l5,0c0.6,0 1,-0.4 1,-1l0,-5c0,-0.6 -0.4,-1 -1,-1zm-1,5l-3,0l0,-3l3,0l0,3z" fill="#ffffff"/>
   <path id="svg_16" d="m70,9l-5,0c-0.6,0 -1,0.4 -1,1l0,5c0,0.6 0.4,1 1,1l5,0c0.6,0 1,-0.4 1,-1l0,-5c0,-0.6 -0.4,-1 -1,-1zm-1,5l-3,0l0,-3l3,0l0,3z" fill="#ffffff"/>
   <path id="svg_17" d="m79,9l-5,0c-0.6,0 -1,0.4 -1,1l0,5c0,0.6 0.4,1 1,1l5,0c0.6,0 1,-0.4 1,-1l0,-5c0,-0.6 -0.4,-1 -1,-1zm-1,5l-3,0l0,-3l3,0l0,3z" fill="#ffffff"/>
  </g>
  <ellipse stroke="#000" ry="7.940068" rx="7.940068" id="svg_20" cy="8.017872" cx="55.692873" stroke-width="0" fill="#fff"/>
 </g>
</svg>