<svg width="80" height="16" xmlns="http://www.w3.org/2000/svg">
 <style type="text/css">.st0{fill:#FFFFFF;}
	.st1{fill:none;stroke:#FFFFFF;stroke-width:2;stroke-linecap:round;stroke-linejoin:round;stroke-miterlimit:10;}</style>

 <title>cd-sprite-3</title>
 <g>
  <title>background</title>
  <rect fill="none" id="canvas_background" height="402" width="582" y="-1" x="-1"/>
 </g>
 <g>
  <title>Layer 1</title>
  <path id="svg_1" d="m31,1l-14,0c-0.5,0 -1,0.4 -1,0.9l0,0.1l0,12c0,0.5 0.4,1 0.9,1l0.1,0l14,0c0.5,0 1,-0.4 1,-0.9l0,-0.1l0,-12c0,-0.5 -0.4,-1 -0.9,-1l-0.1,0zm-1,12l-12,0l0,-6.3l5.5,3.1c0.1,0.1 0.3,0.2 0.5,0.2s0.3,0 0.5,-0.1l5.5,-3.2l0,6.3zm0,-8.6l-6,3.4l-6,-3.4l0,-1.4l12,0l0,1.4z" class="st0"/>
  <g id="svg_2">
   <path id="svg_3" d="m35,16l10,0c0.5,0 1,-0.4 1,-0.9l0,-0.1l0,-7.5l0.3,0.3c0.2,0.1 0.5,0.2 0.7,0.2c0.3,0 0.6,-0.1 0.8,-0.3c0.4,-0.4 0.3,-1 -0.1,-1.4l-7,-6c-0.4,-0.3 -0.9,-0.3 -1.3,0l-3.4,2.8l0,-1.1c0,-0.6 -0.4,-1 -1,-1s-1,0.4 -1,1l0,2.8l-1.7,1.4c-0.4,0.4 -0.3,1 0.1,1.4c0.3,0.3 0.8,0.3 1.2,0.1l0.4,-0.2l0,7.5c0,0.5 0.4,1 1,1l0,0zm1,-10.3l4,-3.4l4,3.5l0,8.2l-2,0l0,-3c0,-0.5 -0.4,-1 -0.9,-1l-0.1,0l-2,0c-0.5,0 -1,0.4 -1,0.9l0,0.1l0,3l-2,0l0,-8.3z" class="st0"/>
   <rect id="svg_4" height="2" width="4" class="st0" y="6" x="38"/>
  </g>
  <g id="svg_5">
   <path id="svg_6" d="m70,0l-5,0c-0.5,0 -1,0.4 -1,0.9l0,0.1l0,5c0,0.5 0.4,1 0.9,1l0.1,0l5,0c0.5,0 1,-0.4 1,-0.9l0,-0.1l0,-5c0,-0.5 -0.4,-1 -1,-1l0,0zm-1,5l-3,0l0,-3l3,0l0,3z" class="st0"/>
   <path id="svg_7" d="m79,0l-5,0c-0.5,0 -1,0.4 -1,0.9l0,0.1l0,5c0,0.5 0.4,1 0.9,1l0.1,0l5,0c0.5,0 1,-0.4 1,-0.9l0,-0.1l0,-5c0,-0.5 -0.4,-1 -1,-1l0,0zm-1,5l-3,0l0,-3l3,0l0,3z" class="st0"/>
   <path id="svg_8" d="m70,9l-5,0c-0.5,0 -1,0.4 -1,0.9l0,0.1l0,5c0,0.5 0.4,1 0.9,1l0.1,0l5,0c0.5,0 1,-0.4 1,-0.9l0,-0.1l0,-5c0,-0.5 -0.4,-1 -1,-1l0,0zm-1,5l-3,0l0,-3l3,0l0,3z" class="st0"/>
   <path id="svg_9" d="m79,9l-5,0c-0.5,0 -1,0.4 -1,0.9l0,0.1l0,5c0,0.5 0.4,1 0.9,1l0.1,0l5,0c0.5,0 1,-0.4 1,-0.9l0,-0.1l0,-5c0,-0.5 -0.4,-1 -1,-1l0,0zm-1,5l-3,0l0,-3l3,0l0,3z" class="st0"/>
  </g>
  <g id="svg_10">
   <path id="svg_11" d="m56,0.1c-4.4,0 -8,3.6 -8,8s3.6,8 8,8s8,-3.6 8,-8l0,0c0,-4.4 -3.6,-8 -8,-8zm0,14c-3.3,0 -6,-2.7 -6,-6s2.7,-6 6,-6s6,2.7 6,6s-2.7,6 -6,6z" class="st0"/>
   <path id="svg_12" d="m56,6.8l0,0c0.6,0 1,0.4 1,1l0,4c0,0.6 -0.4,1 -1,1l0,0c-0.6,0 -1,-0.4 -1,-1l0,-4c0,-0.5 0.5,-1 1,-1z" class="st0"/>
   <circle id="svg_13" r="1.2" cy="4.7" cx="56" class="st0"/>
  </g>
  <g id="svg_14">
   <path id="svg_15" d="m8,0c-4.4,0 -8,3.6 -8,8s3.6,8 8,8s8,-3.6 8,-8l0,0c0,-4.4 -3.6,-8 -8,-8zm0,14c-3.3,0 -6,-2.7 -6,-6s2.7,-6 6,-6s6,2.7 6,6s-2.7,6 -6,6z" class="st0"/>
   <polygon id="svg_16" points="11.9,8 5.8,4.5 5.8,11.5  " class="st1"/>
  </g>
 </g>
</svg>