<svg width="80" height="16" xmlns="http://www.w3.org/2000/svg">
 <title>cd-sprite-3</title>

 <g>
  <title>background</title>
  <rect fill="none" id="canvas_background" height="402" width="582" y="-1" x="-1"/>
 </g>
 <g>
  <title>Layer 1</title>
  <g id="svg_1">
   <path id="svg_2" fill=" #fff" d="m13,11l-10,0a0.94,0.94 0 0 1 -1,-1l0,-8l-2,0l0,-2l3,0a0.94,0.94 0 0 1 1,1l0,1l11,0c0.9,0 1,1 1,1.3l-2,7a1.2,1.2 0 0 1 -1,0.7zm-9,-2l8.2,0l1.4,-5l-9.6,0l0,5z"/>
   <circle id="svg_3" fill=" #fff" r="2" cy="14" cx="3"/>
   <circle id="svg_4" fill=" #fff" r="2" cy="14" cx="13"/>
  </g>
  <path id="svg_5" fill=" #fff" d="m31,1l-14,0a0.94,0.94 0 0 0 -1,1l0,12a0.94,0.94 0 0 0 1,1l14,0a0.94,0.94 0 0 0 1,-1l0,-12a0.94,0.94 0 0 0 -1,-1zm-1,12l-12,0l0,-6.3l5.5,3.1a0.55,0.55 0 0 0 0.5,0.2a0.9,0.9 0 0 0 0.5,-0.1l5.5,-3.2l0,6.3zm0,-14.9l-6,9.7l-6,-3.4l0,-1.4l12,0l0,-4.9z"/>
  <g id="svg_6">
   <path id="svg_7" fill=" #fff" d="m35,16l10,0a0.94,0.94 0 0 0 1,-1l0,-7.5l0.3,0.3a1.85,1.85 0 0 0 0.7,0.2a1.14,1.14 0 0 0 0.8,-0.3a1,1 0 0 0 -0.1,-1.4l-7,-6a1.05,1.05 0 0 0 -1.3,0l-3.4,2.8l0,-1.1a1,1 0 0 0 -2,0l0,2.8l-1.7,1.4a1,1 0 0 0 1.3,1.5l0.4,-0.2l0,7.5a0.94,0.94 0 0 0 1,1zm1,-10.3l4,-3.4l4,3.5l0,8.2l-2,0l0,-3a0.94,0.94 0 0 0 -1,-1l-2,0a0.94,0.94 0 0 0 -1,1l0,3l-2,0l0,-8.3z"/>
   <rect id="svg_8" fill=" #fff" height="2" width="4" y="6" x="38"/>
  </g>
  <g id="svg_9">
   <path id="svg_10" fill=" #fff" d="m70,0l-5,0a0.94,0.94 0 0 0 -1,1l0,5a0.94,0.94 0 0 0 1,1l5,0a0.94,0.94 0 0 0 1,-1l0,-5a0.94,0.94 0 0 0 -1,-1zm-1,5l-3,0l0,-3l3,0l0,3z"/>
   <path id="svg_11" fill=" #fff" d="m79,0l-5,0a0.94,0.94 0 0 0 -1,1l0,5a0.94,0.94 0 0 0 1,1l5,0a0.94,0.94 0 0 0 1,-1l0,-5a0.94,0.94 0 0 0 -1,-1zm-1,5l-3,0l0,-3l3,0l0,3z"/>
   <path id="svg_12" fill=" #fff" d="m70,9l-5,0a0.94,0.94 0 0 0 -1,1l0,5a0.94,0.94 0 0 0 1,1l5,0a0.94,0.94 0 0 0 1,-1l0,-5a0.94,0.94 0 0 0 -1,-1zm-1,5l-3,0l0,-3l3,0l0,3z"/>
   <path id="svg_13" fill=" #fff" d="m79,9l-5,0a0.94,0.94 0 0 0 -1,1l0,5a0.94,0.94 0 0 0 1,1l5,0a0.94,0.94 0 0 0 1,-1l0,-5a0.94,0.94 0 0 0 -1,-1zm-1,5l-3,0l0,-3l3,0l0,3z"/>
  </g>
  <g id="svg_14">
   <path id="svg_15" fill=" #fff" d="m56,0.08a8,8 0 1 0 8,8a8,8 0 0 0 -8,-8zm0,14a6,6 0 1 1 6,-6a6,6 0 0 1 -6,6z"/>
   <rect id="svg_16" fill=" #fff" ry="1" rx="1" height="6" width="2" y="6.83" x="55.02"/>
   <circle id="svg_17" fill=" #fff" r="1.2" cy="4.67" cx="56.02"/>
  </g>
 </g>
</svg>